<mxfile host="www.draw.io" modified="2019-11-26T14:21:06.798Z" agent="Mozilla/5.0 (Windows NT 10.0; Win64; x64) AppleWebKit/537.36 (KHTML, like Gecko) Chrome/78.0.3904.108 Safari/537.36" etag="iTbEXWsn8Zg0eA9WMgnF" version="12.3.0" type="github" pages="1">
  <diagram name="Page-1" id="c4acf3e9-155e-7222-9cf6-157b1a14988f">
    <mxGraphModel dx="2059" dy="677" grid="1" gridSize="10" guides="1" tooltips="1" connect="1" arrows="1" fold="1" page="1" pageScale="1" pageWidth="850" pageHeight="1100" background="#ffffff" math="0" shadow="0">
      <root>
        <mxCell id="0"/>
        <mxCell id="1" parent="0"/>
        <mxCell id="17acba5748e5396b-1" value="Euston Leisure Messaging (ELM)" style="shape=umlFrame;whiteSpace=wrap;html=1;rounded=0;shadow=0;comic=0;labelBackgroundColor=none;strokeWidth=1;fontFamily=Verdana;fontSize=10;align=center;width=180;height=30;" parent="1" vertex="1">
          <mxGeometry x="140" y="160" width="810" height="600" as="geometry"/>
        </mxCell>
        <mxCell id="VTLnxhn9vWax0PrOHTcG-14" style="edgeStyle=orthogonalEdgeStyle;rounded=0;orthogonalLoop=1;jettySize=auto;html=1;entryX=0;entryY=0.5;entryDx=0;entryDy=0;" parent="1" source="VTLnxhn9vWax0PrOHTcG-2" target="VTLnxhn9vWax0PrOHTcG-7" edge="1">
          <mxGeometry relative="1" as="geometry"/>
        </mxCell>
        <mxCell id="VTLnxhn9vWax0PrOHTcG-2" value="Sender" style="shape=umlActor;verticalLabelPosition=bottom;labelBackgroundColor=#ffffff;verticalAlign=top;html=1;" parent="1" vertex="1">
          <mxGeometry x="90" y="445" width="30" height="60" as="geometry"/>
        </mxCell>
        <mxCell id="-e2EYMIhtdSwhaTy2YL7-4" style="edgeStyle=orthogonalEdgeStyle;rounded=0;orthogonalLoop=1;jettySize=auto;html=1;exitX=1;exitY=0.5;exitDx=0;exitDy=0;entryX=0;entryY=0.5;entryDx=0;entryDy=0;" edge="1" parent="1" source="VTLnxhn9vWax0PrOHTcG-7" target="-e2EYMIhtdSwhaTy2YL7-1">
          <mxGeometry relative="1" as="geometry"/>
        </mxCell>
        <mxCell id="-e2EYMIhtdSwhaTy2YL7-5" style="edgeStyle=orthogonalEdgeStyle;rounded=0;orthogonalLoop=1;jettySize=auto;html=1;exitX=1;exitY=0.5;exitDx=0;exitDy=0;entryX=0;entryY=0.5;entryDx=0;entryDy=0;" edge="1" parent="1" source="VTLnxhn9vWax0PrOHTcG-7" target="-e2EYMIhtdSwhaTy2YL7-2">
          <mxGeometry relative="1" as="geometry"/>
        </mxCell>
        <mxCell id="-e2EYMIhtdSwhaTy2YL7-6" style="edgeStyle=orthogonalEdgeStyle;rounded=0;orthogonalLoop=1;jettySize=auto;html=1;exitX=1;exitY=0.5;exitDx=0;exitDy=0;entryX=0;entryY=0.5;entryDx=0;entryDy=0;" edge="1" parent="1" source="VTLnxhn9vWax0PrOHTcG-7" target="-e2EYMIhtdSwhaTy2YL7-3">
          <mxGeometry relative="1" as="geometry"/>
        </mxCell>
        <mxCell id="-e2EYMIhtdSwhaTy2YL7-25" style="edgeStyle=orthogonalEdgeStyle;rounded=0;orthogonalLoop=1;jettySize=auto;html=1;exitX=1;exitY=0.5;exitDx=0;exitDy=0;entryX=0;entryY=0.5;entryDx=0;entryDy=0;" edge="1" parent="1" source="VTLnxhn9vWax0PrOHTcG-7" target="-e2EYMIhtdSwhaTy2YL7-24">
          <mxGeometry relative="1" as="geometry"/>
        </mxCell>
        <mxCell id="VTLnxhn9vWax0PrOHTcG-7" value="Send SMS/Email/Tweet message" style="ellipse;whiteSpace=wrap;html=1;" parent="1" vertex="1">
          <mxGeometry x="190" y="440" width="140" height="70" as="geometry"/>
        </mxCell>
        <mxCell id="-e2EYMIhtdSwhaTy2YL7-18" style="edgeStyle=orthogonalEdgeStyle;rounded=0;orthogonalLoop=1;jettySize=auto;html=1;exitX=1;exitY=0.5;exitDx=0;exitDy=0;entryX=0;entryY=0.5;entryDx=0;entryDy=0;" edge="1" parent="1" source="-e2EYMIhtdSwhaTy2YL7-1" target="-e2EYMIhtdSwhaTy2YL7-14">
          <mxGeometry relative="1" as="geometry"/>
        </mxCell>
        <mxCell id="-e2EYMIhtdSwhaTy2YL7-19" style="edgeStyle=orthogonalEdgeStyle;rounded=0;orthogonalLoop=1;jettySize=auto;html=1;exitX=1;exitY=0.5;exitDx=0;exitDy=0;entryX=0;entryY=0.5;entryDx=0;entryDy=0;" edge="1" parent="1" source="-e2EYMIhtdSwhaTy2YL7-1" target="-e2EYMIhtdSwhaTy2YL7-13">
          <mxGeometry relative="1" as="geometry"/>
        </mxCell>
        <mxCell id="-e2EYMIhtdSwhaTy2YL7-20" style="edgeStyle=orthogonalEdgeStyle;rounded=0;orthogonalLoop=1;jettySize=auto;html=1;exitX=1;exitY=0.5;exitDx=0;exitDy=0;entryX=0;entryY=0.5;entryDx=0;entryDy=0;" edge="1" parent="1" source="-e2EYMIhtdSwhaTy2YL7-1" target="-e2EYMIhtdSwhaTy2YL7-11">
          <mxGeometry relative="1" as="geometry"/>
        </mxCell>
        <mxCell id="-e2EYMIhtdSwhaTy2YL7-21" style="edgeStyle=orthogonalEdgeStyle;rounded=0;orthogonalLoop=1;jettySize=auto;html=1;exitX=1;exitY=0.5;exitDx=0;exitDy=0;entryX=0;entryY=0.5;entryDx=0;entryDy=0;" edge="1" parent="1" source="-e2EYMIhtdSwhaTy2YL7-1" target="-e2EYMIhtdSwhaTy2YL7-12">
          <mxGeometry relative="1" as="geometry"/>
        </mxCell>
        <mxCell id="-e2EYMIhtdSwhaTy2YL7-23" style="edgeStyle=orthogonalEdgeStyle;rounded=0;orthogonalLoop=1;jettySize=auto;html=1;exitX=1;exitY=0.5;exitDx=0;exitDy=0;entryX=0;entryY=0.5;entryDx=0;entryDy=0;" edge="1" parent="1" source="-e2EYMIhtdSwhaTy2YL7-1" target="-e2EYMIhtdSwhaTy2YL7-22">
          <mxGeometry relative="1" as="geometry"/>
        </mxCell>
        <mxCell id="-e2EYMIhtdSwhaTy2YL7-1" value="Sanitize message" style="ellipse;whiteSpace=wrap;html=1;" vertex="1" parent="1">
          <mxGeometry x="370" y="440" width="140" height="70" as="geometry"/>
        </mxCell>
        <mxCell id="-e2EYMIhtdSwhaTy2YL7-2" value="Validate message" style="ellipse;whiteSpace=wrap;html=1;" vertex="1" parent="1">
          <mxGeometry x="370" y="350" width="140" height="70" as="geometry"/>
        </mxCell>
        <mxCell id="-e2EYMIhtdSwhaTy2YL7-9" style="edgeStyle=orthogonalEdgeStyle;rounded=0;orthogonalLoop=1;jettySize=auto;html=1;exitX=1;exitY=0.5;exitDx=0;exitDy=0;" edge="1" parent="1" source="-e2EYMIhtdSwhaTy2YL7-3" target="-e2EYMIhtdSwhaTy2YL7-7">
          <mxGeometry relative="1" as="geometry"/>
        </mxCell>
        <mxCell id="-e2EYMIhtdSwhaTy2YL7-10" style="edgeStyle=orthogonalEdgeStyle;rounded=0;orthogonalLoop=1;jettySize=auto;html=1;exitX=1;exitY=0.5;exitDx=0;exitDy=0;entryX=0;entryY=0.5;entryDx=0;entryDy=0;" edge="1" parent="1" source="-e2EYMIhtdSwhaTy2YL7-3" target="-e2EYMIhtdSwhaTy2YL7-8">
          <mxGeometry relative="1" as="geometry"/>
        </mxCell>
        <mxCell id="-e2EYMIhtdSwhaTy2YL7-3" value="Categorize message" style="ellipse;whiteSpace=wrap;html=1;" vertex="1" parent="1">
          <mxGeometry x="370" y="530" width="140" height="70" as="geometry"/>
        </mxCell>
        <mxCell id="-e2EYMIhtdSwhaTy2YL7-7" value="Detect message type" style="ellipse;whiteSpace=wrap;html=1;" vertex="1" parent="1">
          <mxGeometry x="600" y="580" width="140" height="70" as="geometry"/>
        </mxCell>
        <mxCell id="-e2EYMIhtdSwhaTy2YL7-8" value="Detect Significant Incident Reports" style="ellipse;whiteSpace=wrap;html=1;" vertex="1" parent="1">
          <mxGeometry x="600" y="670" width="140" height="70" as="geometry"/>
        </mxCell>
        <mxCell id="-e2EYMIhtdSwhaTy2YL7-16" style="edgeStyle=none;rounded=0;orthogonalLoop=1;jettySize=auto;html=1;exitX=1;exitY=0.5;exitDx=0;exitDy=0;entryX=0;entryY=0.5;entryDx=0;entryDy=0;" edge="1" parent="1" source="-e2EYMIhtdSwhaTy2YL7-11" target="-e2EYMIhtdSwhaTy2YL7-15">
          <mxGeometry relative="1" as="geometry"/>
        </mxCell>
        <mxCell id="-e2EYMIhtdSwhaTy2YL7-11" value="Quarantine URLs" style="ellipse;whiteSpace=wrap;html=1;" vertex="1" parent="1">
          <mxGeometry x="600" y="250" width="140" height="70" as="geometry"/>
        </mxCell>
        <mxCell id="-e2EYMIhtdSwhaTy2YL7-12" value="Expand Textspeak abbreviations" style="ellipse;whiteSpace=wrap;html=1;" vertex="1" parent="1">
          <mxGeometry x="600" y="170" width="140" height="70" as="geometry"/>
        </mxCell>
        <mxCell id="-e2EYMIhtdSwhaTy2YL7-13" value="Save hashtags and their count to trending list" style="ellipse;whiteSpace=wrap;html=1;" vertex="1" parent="1">
          <mxGeometry x="600" y="330" width="140" height="70" as="geometry"/>
        </mxCell>
        <mxCell id="-e2EYMIhtdSwhaTy2YL7-14" value="Save twitter mentions to mentions list" style="ellipse;whiteSpace=wrap;html=1;" vertex="1" parent="1">
          <mxGeometry x="600" y="410" width="140" height="70" as="geometry"/>
        </mxCell>
        <mxCell id="-e2EYMIhtdSwhaTy2YL7-15" value="Save quarantined URLs to quarantine list" style="ellipse;whiteSpace=wrap;html=1;" vertex="1" parent="1">
          <mxGeometry x="760" y="250" width="140" height="70" as="geometry"/>
        </mxCell>
        <mxCell id="-e2EYMIhtdSwhaTy2YL7-22" value="Save sport center code and nature of incident to SIR list" style="ellipse;whiteSpace=wrap;html=1;" vertex="1" parent="1">
          <mxGeometry x="600" y="490" width="140" height="70" as="geometry"/>
        </mxCell>
        <mxCell id="-e2EYMIhtdSwhaTy2YL7-24" value="Output message in JSON format" style="ellipse;whiteSpace=wrap;html=1;" vertex="1" parent="1">
          <mxGeometry x="370" y="620" width="140" height="70" as="geometry"/>
        </mxCell>
        <mxCell id="-e2EYMIhtdSwhaTy2YL7-27" value="Verification [Data]" style="ellipse;shape=cloud;whiteSpace=wrap;html=1;" vertex="1" parent="1">
          <mxGeometry x="150" y="775" width="150" height="90" as="geometry"/>
        </mxCell>
        <mxCell id="-e2EYMIhtdSwhaTy2YL7-28" value="&lt;span style=&quot;color: rgba(0 , 0 , 0 , 0) ; font-family: monospace ; font-size: 0px&quot;&gt;%3CmxGraphModel%3E%3Croot%3E%3CmxCell%20id%3D%220%22%2F%3E%3CmxCell%20id%3D%221%22%20parent%3D%220%22%2F%3E%3CmxCell%20id%3D%222%22%20value%3D%22Verification%20%5BData%5D%22%20style%3D%22ellipse%3Bshape%3Dcloud%3BwhiteSpace%3Dwrap%3Bhtml%3D1%3B%22%20vertex%3D%221%22%20parent%3D%221%22%3E%3CmxGeometry%20x%3D%22260%22%20y%3D%22820%22%20width%3D%22150%22%20height%3D%2290%22%20as%3D%22geometry%22%2F%3E%3C%2FmxCell%3E%3C%2Froot%3E%3C%2FmxGraphModel%3E&lt;/span&gt;" style="text;html=1;align=center;verticalAlign=middle;resizable=0;points=[];;autosize=1;" vertex="1" parent="1">
          <mxGeometry x="702" y="876" width="20" height="20" as="geometry"/>
        </mxCell>
        <mxCell id="-e2EYMIhtdSwhaTy2YL7-36" style="edgeStyle=orthogonalEdgeStyle;curved=1;rounded=0;orthogonalLoop=1;jettySize=auto;html=1;entryX=1;entryY=0.5;entryDx=0;entryDy=0;dashed=1;" edge="1" parent="1" source="-e2EYMIhtdSwhaTy2YL7-29" target="-e2EYMIhtdSwhaTy2YL7-15">
          <mxGeometry relative="1" as="geometry"/>
        </mxCell>
        <mxCell id="-e2EYMIhtdSwhaTy2YL7-37" style="edgeStyle=orthogonalEdgeStyle;curved=1;rounded=0;orthogonalLoop=1;jettySize=auto;html=1;entryX=1;entryY=0.5;entryDx=0;entryDy=0;dashed=1;" edge="1" parent="1" source="-e2EYMIhtdSwhaTy2YL7-29" target="-e2EYMIhtdSwhaTy2YL7-13">
          <mxGeometry relative="1" as="geometry"/>
        </mxCell>
        <mxCell id="-e2EYMIhtdSwhaTy2YL7-38" style="edgeStyle=orthogonalEdgeStyle;curved=1;rounded=0;orthogonalLoop=1;jettySize=auto;html=1;entryX=1;entryY=0.5;entryDx=0;entryDy=0;dashed=1;" edge="1" parent="1" source="-e2EYMIhtdSwhaTy2YL7-29" target="-e2EYMIhtdSwhaTy2YL7-14">
          <mxGeometry relative="1" as="geometry"/>
        </mxCell>
        <mxCell id="-e2EYMIhtdSwhaTy2YL7-39" style="edgeStyle=orthogonalEdgeStyle;curved=1;rounded=0;orthogonalLoop=1;jettySize=auto;html=1;entryX=1;entryY=0.5;entryDx=0;entryDy=0;dashed=1;" edge="1" parent="1" source="-e2EYMIhtdSwhaTy2YL7-29" target="-e2EYMIhtdSwhaTy2YL7-22">
          <mxGeometry relative="1" as="geometry"/>
        </mxCell>
        <mxCell id="-e2EYMIhtdSwhaTy2YL7-29" value="Scalability [Data]" style="ellipse;shape=cloud;whiteSpace=wrap;html=1;" vertex="1" parent="1">
          <mxGeometry x="1000" y="295" width="150" height="90" as="geometry"/>
        </mxCell>
        <mxCell id="-e2EYMIhtdSwhaTy2YL7-35" style="edgeStyle=orthogonalEdgeStyle;curved=1;rounded=0;orthogonalLoop=1;jettySize=auto;html=1;entryX=0.5;entryY=0;entryDx=0;entryDy=0;entryPerimeter=0;dashed=1;" edge="1" parent="1" source="-e2EYMIhtdSwhaTy2YL7-31" target="VTLnxhn9vWax0PrOHTcG-2">
          <mxGeometry relative="1" as="geometry"/>
        </mxCell>
        <mxCell id="-e2EYMIhtdSwhaTy2YL7-31" value="Scalability [Customer]" style="ellipse;shape=cloud;whiteSpace=wrap;html=1;" vertex="1" parent="1">
          <mxGeometry x="-20" y="275" width="150" height="90" as="geometry"/>
        </mxCell>
        <mxCell id="-e2EYMIhtdSwhaTy2YL7-34" style="edgeStyle=orthogonalEdgeStyle;curved=1;rounded=0;orthogonalLoop=1;jettySize=auto;html=1;entryX=0.5;entryY=1;entryDx=0;entryDy=0;dashed=1;" edge="1" parent="1" source="-e2EYMIhtdSwhaTy2YL7-33" target="-e2EYMIhtdSwhaTy2YL7-24">
          <mxGeometry relative="1" as="geometry"/>
        </mxCell>
        <mxCell id="-e2EYMIhtdSwhaTy2YL7-33" value="Scalability [Data]" style="ellipse;shape=cloud;whiteSpace=wrap;html=1;" vertex="1" parent="1">
          <mxGeometry x="450" y="775" width="150" height="90" as="geometry"/>
        </mxCell>
      </root>
    </mxGraphModel>
  </diagram>
</mxfile>
